<svg width="20" height="20" viewBox="0 0 20 20" fill="none" xmlns="http://www.w3.org/2000/svg">
<path d="M5.40161 2.5C4.48974 2.5 3.75 3.23852 3.75 4.15039C3.75 5.06227 4.48914 5.81787 5.40039 5.81787C6.31164 5.81787 7.052 5.06227 7.052 4.15039C7.052 3.23914 6.31349 2.5 5.40161 2.5ZM13.4595 6.875C12.0726 6.875 11.2791 7.60028 10.8984 8.32153H10.8582V7.06909H8.125V16.25H10.9729V11.7053C10.9729 10.5078 11.0633 9.35059 12.5452 9.35059C14.0058 9.35059 14.0271 10.716 14.0271 11.781V16.25H16.8713H16.875V11.2073C16.875 8.73978 16.3445 6.875 13.4595 6.875ZM3.97705 7.06909V16.25H6.82739V7.06909H3.97705Z" fill="black"/>
</svg>
