<svg width="20" height="20" viewBox="0 0 20 20" fill="none" xmlns="http://www.w3.org/2000/svg">
<path d="M13.5015 11.6448C12.5849 11.5614 12.0849 12.8114 11.4182 13.1448C10.3349 13.7281 8.33487 11.6448 8.33487 11.6448C8.33487 11.6448 6.25154 9.64478 6.75154 8.56144C7.16821 7.89478 8.41821 7.39478 8.33487 6.47811C8.25154 5.64478 6.41821 2.64478 5.50154 3.47811C3.50154 5.31144 3.33487 6.06144 3.33487 7.56144C3.25154 10.1448 6.58487 13.3948 6.58487 13.3948C6.91821 13.7281 9.83487 16.7281 12.4182 16.6448C13.9182 16.6448 14.6682 16.4781 16.5015 14.4781C17.3349 13.5614 14.4182 11.7281 13.5015 11.6448Z" fill="black"/>
</svg>
